<?xml version="1.0" encoding="UTF-8" standalone="no"?>
<!-- Created with Inkscape (http://www.inkscape.org/) -->

<svg
   width="320"
   height="58"
   viewBox="0 0 320 58"
   version="1.1"
   id="svg1"
   xmlns="http://www.w3.org/2000/svg"
   xmlns:svg="http://www.w3.org/2000/svg">
  <defs
     id="defs2">
    <rect
       x="-91"
       y="-70"
       width="500"
       height="427"
       id="rect24" />
    <rect
       x="284"
       y="270"
       width="286"
       height="277"
       id="rect23" />
    <rect
       x="60.912781"
       y="66.937119"
       width="38.15416"
       height="80.324547"
       id="rect6" />
    <rect
       x="194.78702"
       y="214.19878"
       width="22.089249"
       height="89.026367"
       id="rect3" />
    <rect
       x="343.93332"
       y="-5.8666668"
       width="1.4666667"
       height="347.60001"
       id="rect552" />
    <filter
       style="color-interpolation-filters:sRGB"
       id="filter5"
       x="-0.11834046"
       y="-0.72214377"
       width="1.2366809"
       height="2.4442875">
      <feFlood
         result="flood"
         in="SourceGraphic"
         flood-opacity="1.000000"
         flood-color="rgb(255,255,255)"
         id="feFlood4" />
      <feGaussianBlur
         result="blur"
         in="SourceGraphic"
         stdDeviation="5.000000"
         id="feGaussianBlur4" />
      <feOffset
         result="offset"
         in="blur"
         dx="0.000000"
         dy="0.000000"
         id="feOffset4" />
      <feComposite
         result="comp1"
         operator="in"
         in="flood"
         in2="offset"
         id="feComposite4" />
      <feComposite
         result="fbSourceGraphic"
         operator="over"
         in="SourceGraphic"
         in2="comp1"
         id="feComposite5" />
      <feColorMatrix
         result="fbSourceGraphicAlpha"
         in="fbSourceGraphic"
         values="0 0 0 -1 0 0 0 0 -1 0 0 0 0 -1 0 0 0 0 1 0"
         id="feColorMatrix9" />
      <feFlood
         id="feFlood9"
         result="flood"
         in="fbSourceGraphic"
         flood-opacity="1.000000"
         flood-color="rgb(255,255,255)" />
      <feGaussianBlur
         id="feGaussianBlur9"
         result="blur"
         in="fbSourceGraphic"
         stdDeviation="5.000000" />
      <feOffset
         id="feOffset9"
         result="offset"
         in="blur"
         dx="0.000000"
         dy="0.000000" />
      <feComposite
         id="feComposite9"
         result="comp1"
         operator="in"
         in="flood"
         in2="offset" />
      <feComposite
         id="feComposite10"
         result="comp2"
         operator="over"
         in="fbSourceGraphic"
         in2="comp1" />
    </filter>
    <filter
       style="color-interpolation-filters:sRGB"
       id="filter12"
       x="-0.087329537"
       y="-0.44803086"
       width="1.1746591"
       height="1.8960617">
      <feFlood
         result="flood"
         in="SourceGraphic"
         flood-opacity="1.000000"
         flood-color="rgb(255,255,255)"
         id="feFlood10" />
      <feGaussianBlur
         result="blur"
         in="SourceGraphic"
         stdDeviation="8.000000"
         id="feGaussianBlur10" />
      <feOffset
         result="offset"
         in="blur"
         dx="0.000000"
         dy="0.000000"
         id="feOffset10" />
      <feComposite
         result="comp1"
         operator="in"
         in="flood"
         in2="offset"
         id="feComposite11" />
      <feComposite
         result="comp2"
         operator="over"
         in="SourceGraphic"
         in2="comp1"
         id="feComposite12" />
    </filter>
    <filter
       style="color-interpolation-filters:sRGB"
       id="filter12-5"
       x="-0.087329537"
       y="-0.44803086"
       width="1.1746591"
       height="1.8960617">
      <feFlood
         result="flood"
         in="SourceGraphic"
         flood-opacity="1.000000"
         flood-color="rgb(255,255,255)"
         id="feFlood10-3" />
      <feGaussianBlur
         result="blur"
         in="SourceGraphic"
         stdDeviation="8.000000"
         id="feGaussianBlur10-0" />
      <feOffset
         result="offset"
         in="blur"
         dx="0.000000"
         dy="0.000000"
         id="feOffset10-4" />
      <feComposite
         result="comp1"
         operator="in"
         in="flood"
         in2="offset"
         id="feComposite11-8" />
      <feComposite
         result="comp2"
         operator="over"
         in="SourceGraphic"
         in2="comp1"
         id="feComposite12-0" />
    </filter>
    <filter
       style="color-interpolation-filters:sRGB"
       id="filter2"
       x="-0.037682618"
       y="-0.039665899"
       width="1.0910663"
       height="1.0958593">
      <feFlood
         result="flood"
         in="SourceGraphic"
         flood-opacity="0.200000"
         flood-color="rgb(0,0,0)"
         id="feFlood1" />
      <feGaussianBlur
         result="blur"
         in="SourceGraphic"
         stdDeviation="4.000000"
         id="feGaussianBlur1" />
      <feOffset
         result="offset"
         in="blur"
         dx="4.000000"
         dy="4.000000"
         id="feOffset1" />
      <feComposite
         result="comp1"
         operator="in"
         in="flood"
         in2="offset"
         id="feComposite1" />
      <feComposite
         result="comp2"
         operator="over"
         in="SourceGraphic"
         in2="comp1"
         id="feComposite2" />
    </filter>
    <filter
       style="color-interpolation-filters:sRGB"
       id="filter6"
       x="-0.064201289"
       y="-0.06121161"
       width="1.1551531"
       height="1.1479281">
      <feFlood
         result="flood"
         in="SourceGraphic"
         flood-opacity="0.200000"
         flood-color="rgb(0,0,0)"
         id="feFlood2" />
      <feGaussianBlur
         result="blur"
         in="SourceGraphic"
         stdDeviation="4.000000"
         id="feGaussianBlur2" />
      <feOffset
         result="offset"
         in="blur"
         dx="4.000000"
         dy="4.000000"
         id="feOffset2" />
      <feComposite
         result="comp1"
         operator="in"
         in="flood"
         in2="offset"
         id="feComposite3" />
      <feComposite
         result="comp2"
         operator="over"
         in="SourceGraphic"
         in2="comp1"
         id="feComposite6" />
    </filter>
    <filter
       style="color-interpolation-filters:sRGB"
       id="filter8"
       x="-0.13692827"
       y="-0.14413486"
       width="1.33091"
       height="1.3483259">
      <feFlood
         result="flood"
         in="SourceGraphic"
         flood-opacity="0.200000"
         flood-color="rgb(0,0,0)"
         id="feFlood6" />
      <feGaussianBlur
         result="blur"
         in="SourceGraphic"
         stdDeviation="4.000000"
         id="feGaussianBlur6" />
      <feOffset
         result="offset"
         in="blur"
         dx="4.000000"
         dy="4.000000"
         id="feOffset6" />
      <feComposite
         result="comp1"
         operator="in"
         in="flood"
         in2="offset"
         id="feComposite7" />
      <feComposite
         result="comp2"
         operator="over"
         in="SourceGraphic"
         in2="comp1"
         id="feComposite8" />
    </filter>
    <filter
       style="color-interpolation-filters:sRGB"
       id="filter57"
       x="-0.020337922"
       y="-0.022662863"
       width="1.0448264"
       height="1.0499508">
      <feFlood
         result="flood"
         in="SourceGraphic"
         flood-opacity="0.200000"
         flood-color="rgb(0,0,0)"
         id="feFlood56" />
      <feGaussianBlur
         result="blur"
         in="SourceGraphic"
         stdDeviation="4.000000"
         id="feGaussianBlur56" />
      <feOffset
         result="offset"
         in="blur"
         dx="4.000000"
         dy="4.000000"
         id="feOffset56" />
      <feComposite
         result="comp1"
         operator="in"
         in="flood"
         in2="offset"
         id="feComposite56" />
      <feComposite
         result="comp2"
         operator="over"
         in="SourceGraphic"
         in2="comp1"
         id="feComposite57" />
    </filter>
    <filter
       style="color-interpolation-filters:sRGB"
       id="filter108"
       x="-0.0029754161"
       y="-0.003255167"
       width="1.0071906"
       height="1.0078667">
      <feFlood
         result="flood"
         in="SourceGraphic"
         flood-opacity="0.501961"
         flood-color="rgb(0,0,0)"
         id="feFlood107" />
      <feGaussianBlur
         result="blur"
         in="SourceGraphic"
         stdDeviation="1.000000"
         id="feGaussianBlur107" />
      <feOffset
         result="offset"
         in="blur"
         dx="1.000000"
         dy="1.000000"
         id="feOffset107" />
      <feComposite
         result="comp1"
         operator="in"
         in="flood"
         in2="offset"
         id="feComposite107" />
      <feComposite
         result="comp2"
         operator="over"
         in="SourceGraphic"
         in2="comp1"
         id="feComposite108" />
    </filter>
    <filter
       style="color-interpolation-filters:sRGB"
       id="filter2-2"
       x="-0.037682618"
       y="-0.039665899"
       width="1.0910663"
       height="1.0958593">
      <feFlood
         result="flood"
         in="SourceGraphic"
         flood-opacity="0.200000"
         flood-color="rgb(0,0,0)"
         id="feFlood1-1" />
      <feGaussianBlur
         result="blur"
         in="SourceGraphic"
         stdDeviation="4.000000"
         id="feGaussianBlur1-7" />
      <feOffset
         result="offset"
         in="blur"
         dx="4.000000"
         dy="4.000000"
         id="feOffset1-5" />
      <feComposite
         result="comp1"
         operator="in"
         in="flood"
         in2="offset"
         id="feComposite1-2" />
      <feComposite
         result="comp2"
         operator="over"
         in="SourceGraphic"
         in2="comp1"
         id="feComposite2-1" />
    </filter>
    <filter
       style="color-interpolation-filters:sRGB"
       id="filter8-9"
       x="-0.13692827"
       y="-0.14413486"
       width="1.33091"
       height="1.3483259">
      <feFlood
         result="flood"
         in="SourceGraphic"
         flood-opacity="0.200000"
         flood-color="rgb(0,0,0)"
         id="feFlood6-5" />
      <feGaussianBlur
         result="blur"
         in="SourceGraphic"
         stdDeviation="4.000000"
         id="feGaussianBlur6-4" />
      <feOffset
         result="offset"
         in="blur"
         dx="4.000000"
         dy="4.000000"
         id="feOffset6-0" />
      <feComposite
         result="comp1"
         operator="in"
         in="flood"
         in2="offset"
         id="feComposite7-1" />
      <feComposite
         result="comp2"
         operator="over"
         in="SourceGraphic"
         in2="comp1"
         id="feComposite8-9" />
    </filter>
    <filter
       style="color-interpolation-filters:sRGB"
       id="filter8-9-1"
       x="-0.13692827"
       y="-0.14413486"
       width="1.33091"
       height="1.3483259">
      <feFlood
         result="flood"
         in="SourceGraphic"
         flood-opacity="0.200000"
         flood-color="rgb(0,0,0)"
         id="feFlood6-5-0" />
      <feGaussianBlur
         result="blur"
         in="SourceGraphic"
         stdDeviation="4.000000"
         id="feGaussianBlur6-4-5" />
      <feOffset
         result="offset"
         in="blur"
         dx="4.000000"
         dy="4.000000"
         id="feOffset6-0-9" />
      <feComposite
         result="comp1"
         operator="in"
         in="flood"
         in2="offset"
         id="feComposite7-1-5" />
      <feComposite
         result="comp2"
         operator="over"
         in="SourceGraphic"
         in2="comp1"
         id="feComposite8-9-1" />
    </filter>
    <filter
       style="color-interpolation-filters:sRGB"
       id="filter14"
       x="-0.051984946"
       y="-0.54226714"
       width="1.1256303"
       height="2.3104789">
      <feFlood
         result="flood"
         in="SourceGraphic"
         flood-opacity="0.200000"
         flood-color="rgb(0,0,0)"
         id="feFlood3" />
      <feGaussianBlur
         result="blur"
         in="SourceGraphic"
         stdDeviation="4.000000"
         id="feGaussianBlur3" />
      <feOffset
         result="offset"
         in="blur"
         dx="4.000000"
         dy="4.000000"
         id="feOffset3" />
      <feComposite
         result="comp1"
         operator="in"
         in="flood"
         in2="offset"
         id="feComposite13" />
      <feComposite
         result="comp2"
         operator="over"
         in="SourceGraphic"
         in2="comp1"
         id="feComposite14" />
    </filter>
    <filter
       style="color-interpolation-filters:sRGB"
       id="filter14-4"
       x="-0.033688493"
       y="-0.22219965"
       width="1.0814139"
       height="1.5369825">
      <feFlood
         result="flood"
         in="SourceGraphic"
         flood-opacity="0.200000"
         flood-color="rgb(0,0,0)"
         id="feFlood3-7" />
      <feGaussianBlur
         result="blur"
         in="SourceGraphic"
         stdDeviation="4.000000"
         id="feGaussianBlur3-8" />
      <feOffset
         result="offset"
         in="blur"
         dx="4.000000"
         dy="4.000000"
         id="feOffset3-5" />
      <feComposite
         result="comp1"
         operator="in"
         in="flood"
         in2="offset"
         id="feComposite13-0" />
      <feComposite
         result="comp2"
         operator="over"
         in="SourceGraphic"
         in2="comp1"
         id="feComposite14-1" />
    </filter>
  </defs>
  <path
     id="rect14"
     style="display:inline;fill:#4285f4;stroke-width:0.379405"
     d="M 0,0 H 320 V 58 H 0 Z" />
  <path
     id="text1-6"
     style="font-size:15.9899px;font-family:Roboto;-inkscape-font-specification:'Roboto, Normal';fill:#f9f9f9;stroke-width:13.8315;stroke-linecap:round;stroke-linejoin:round;paint-order:markers stroke fill;filter:url(#filter14-4)"
     transform="matrix(1.008659,0,0,1.008659,37.439042,18.299668)"
     d="m 73.516538,23.656362 v 4.450314 H 72.017485 V 16.738857 h 4.192664 q 1.866009,0 2.92003,0.952523 1.06183,0.952523 1.06183,2.521845 0,1.655204 -1.038407,2.553074 -1.030599,0.890063 -2.959068,0.890063 z m 0,-1.225788 h 2.693611 q 1.202365,0 1.842586,-0.562145 0.64022,-0.569952 0.64022,-1.639589 0,-1.014984 -0.64022,-1.623974 -0.640221,-0.608991 -1.756703,-0.632413 h -2.779494 z m 12.445264,-1.47563 q -0.327918,-0.05465 -0.710489,-0.05465 -1.420977,0 -1.928469,1.210173 v 5.996212 h -1.4444 V 19.65889 h 1.405362 l 0.02342,0.975946 q 0.710488,-1.132097 2.014352,-1.132097 0.421609,0 0.640221,0.109306 z m 2.896607,7.151732 h -1.4444 v -8.447789 h 1.4444 z M 87.296896,17.418115 q 0,-0.35134 0.210804,-0.593375 0.218612,-0.242035 0.640221,-0.242035 0.421608,0 0.64022,0.242035 0.218612,0.242035 0.218612,0.593375 0,0.351341 -0.218612,0.585568 -0.218612,0.234227 -0.64022,0.234227 -0.421609,0 -0.640221,-0.234227 -0.210804,-0.234227 -0.210804,-0.585568 z m 6.659855,8.728861 2.092428,-6.488089 h 1.47563 l -3.029336,8.447789 h -1.100867 l -3.060567,-8.447789 h 1.47563 z m 10.056149,1.9597 q -0.12492,-0.249842 -0.203,-0.890063 -1.00717,1.046214 -2.40473,1.046214 -1.24921,0 -2.053389,-0.702681 -0.796372,-0.710488 -0.796372,-1.79574 0,-1.319479 0.999369,-2.045583 1.007172,-0.733912 2.826342,-0.733912 h 1.40536 v -0.663643 q 0,-0.757334 -0.45284,-1.202365 -0.45284,-0.452839 -1.33509,-0.452839 -0.77295,0 -1.29606,0.390378 -0.52311,0.390378 -0.52311,0.944716 h -1.452205 q 0,-0.632413 0.445032,-1.217981 0.452839,-0.593375 1.217983,-0.936908 0.77295,-0.343533 1.69424,-0.343533 1.46001,0 2.28762,0.733911 0.8276,0.726104 0.85883,2.006545 v 3.888169 q 0,1.163328 0.29669,1.850394 v 0.124921 z m -2.39692,-1.100867 q 0.67925,0 1.28824,-0.351341 0.60899,-0.35134 0.88226,-0.913485 v -1.73328 h -1.1321 q -2.654571,0 -2.654571,1.553706 0,0.679258 0.452841,1.061829 0.45284,0.382571 1.16333,0.382571 z m 9.26758,0.07808 q 0.77295,0 1.35071,-0.468454 0.57776,-0.468455 0.64022,-1.171136 h 1.36632 q -0.039,0.726104 -0.49968,1.38194 -0.46065,0.655836 -1.2336,1.046214 -0.76514,0.390378 -1.62397,0.390378 -1.72547,0 -2.74826,-1.147712 -1.01499,-1.15552 -1.01499,-3.154258 v -0.242034 q 0,-1.233596 0.45284,-2.193927 0.45284,-0.960331 1.29606,-1.491245 0.85102,-0.530915 2.00654,-0.530915 1.42098,0 2.35789,0.851025 0.94471,0.851025 1.00717,2.209542 h -1.36632 q -0.0625,-0.819795 -0.62461,-1.342902 -0.55433,-0.530915 -1.37413,-0.530915 -1.10086,0 -1.70986,0.796372 -0.60118,0.788565 -0.60118,2.287618 v 0.273265 q 0,1.460015 0.60118,2.248579 0.60119,0.788565 1.71767,0.788565 z m 7.74511,-1.09306 1.9675,-6.331938 h 1.5459 l -3.39629,9.751653 q -0.78856,2.108043 -2.50623,2.108043 l -0.27326,-0.02342 -0.53873,-0.101499 v -1.171135 l 0.39038,0.03123 q 0.73391,0 1.13991,-0.296687 0.4138,-0.296688 0.67926,-1.085252 l 0.32011,-0.858833 -3.01372,-8.354098 h 1.57712 z m 10.48556,-2.334463 v 4.450314 h -1.49905 V 16.738857 h 4.19266 q 1.86601,0 2.92003,0.952523 1.06183,0.952523 1.06183,2.521845 0,1.655204 -1.0384,2.553074 -1.0306,0.890063 -2.95907,0.890063 z m 0,-1.225788 h 2.69361 q 1.20237,0 1.84259,-0.562145 0.64022,-0.569952 0.64022,-1.639589 0,-1.014984 -0.64022,-1.623974 -0.64022,-0.608991 -1.7567,-0.632413 h -2.7795 z m 7.87784,1.374132 q 0,-1.241403 0.48407,-2.232964 0.49187,-0.991562 1.35851,-1.530284 0.87445,-0.538722 1.99093,-0.538722 1.72548,0 2.7873,1.194558 1.06964,1.194558 1.06964,3.17768 v 0.101499 q 0,1.233595 -0.47626,2.217349 -0.46845,0.975946 -1.35071,1.522476 -0.87445,0.546529 -2.01435,0.546529 -1.71767,0 -2.7873,-1.194557 -1.06183,-1.194558 -1.06183,-3.162066 z m 1.4522,0.171767 q 0,1.405362 0.64803,2.256387 0.65584,0.851025 1.7489,0.851025 1.10086,0 1.74889,-0.858833 0.64803,-0.86664 0.64803,-2.420346 0,-1.389747 -0.66364,-2.24858 -0.65584,-0.86664 -1.7489,-0.86664 -1.06963,0 -1.72547,0.851025 -0.65584,0.851025 -0.65584,2.435962 z m 9.61893,4.130203 h -1.4444 V 16.114251 h 1.4444 z m 3.88036,0 h -1.4444 v -8.447789 h 1.4444 z m -1.56151,-10.688561 q 0,-0.35134 0.2108,-0.593375 0.21861,-0.242035 0.64022,-0.242035 0.42161,0 0.64022,0.242035 0.21862,0.242035 0.21862,0.593375 0,0.351341 -0.21862,0.585568 -0.21861,0.234227 -0.64022,0.234227 -0.42161,0 -0.64022,-0.234227 -0.2108,-0.234227 -0.2108,-0.585568 z m 7.26103,9.66577 q 0.77295,0 1.35071,-0.468454 0.57776,-0.468455 0.64022,-1.171136 h 1.36633 q -0.039,0.726104 -0.49969,1.38194 -0.46065,0.655836 -1.23359,1.046214 -0.76515,0.390378 -1.62398,0.390378 -1.72547,0 -2.74826,-1.147712 -1.01499,-1.15552 -1.01499,-3.154258 v -0.242034 q 0,-1.233596 0.45284,-2.193927 0.45284,-0.960331 1.29606,-1.491245 0.85102,-0.530915 2.00654,-0.530915 1.42098,0 2.35789,0.851025 0.94472,0.851025 1.00718,2.209542 h -1.36633 q -0.0625,-0.819795 -0.6246,-1.342902 -0.55434,-0.530915 -1.37414,-0.530915 -1.10086,0 -1.70985,0.796372 -0.60119,0.788565 -0.60119,2.287618 v 0.273265 q 0,1.460015 0.60119,2.248579 0.60118,0.788565 1.71766,0.788565 z m 7.74511,-1.09306 1.96751,-6.331938 h 1.54589 l -3.39629,9.751653 q -0.78856,2.108043 -2.50623,2.108043 l -0.27326,-0.02342 -0.53872,-0.101499 v -1.171135 l 0.39037,0.03123 q 0.73392,0 1.13991,-0.296687 0.4138,-0.296688 0.67926,-1.085252 l 0.32011,-0.858833 -3.01372,-8.354098 h 1.57713 z M 37.004413,5.8683158 39.419719,-6.8983052 h 3.684576 L 39.123967,11.043972 H 35.402423 L 32.481875,-0.95862251 29.561325,11.043972 H 25.839781 L 21.859455,-6.8983052 h 3.684575 l 2.427629,12.741974 2.957519,-12.741974 h 3.13004 z m 6.925522,-1.6143124 q 0,-1.9840021 0.764025,-3.53669925 0.764027,-1.55269716 2.193493,-2.40298345 1.44179,-0.8502863 3.339531,-0.8502863 2.698735,0 4.399312,1.65128079 1.712888,1.65128076 1.910066,4.48556911 l 0.02459,0.9119016 q 0,3.068426 -1.712898,4.9291974 -1.712893,1.8484487 -4.596474,1.8484487 -2.88358,0 -4.608799,-1.8484487 -1.712896,-1.848449 -1.712896,-5.027781 z m 3.561345,0.2587825 q 0,1.8977408 0.714734,2.908226 0.714733,0.9981628 2.045616,0.9981628 1.293915,0 2.020971,-0.9858393 0.727057,-0.9981628 0.727057,-3.179332 0,-1.8607726 -0.727057,-2.8835802 -0.727056,-1.02280864 -2.045617,-1.02280864 -1.306237,0 -2.02097,1.02280864 Q 47.49128,2.3809084 47.49128,4.5127859 Z M 66.246879,1.0500254 q -0.727062,-0.0985836 -1.281598,-0.0985836 -2.020963,0 -2.649442,1.36785237 V 11.043973 H 58.754493 V -2.2895066 h 3.364179 l 0.09856,1.58966659 q 1.072105,-1.83612559 2.969844,-1.83612559 0.591502,0 1.109071,0.1601989 z m 0.924219,3.2286239 q 0,-3.1177179 1.392496,-4.96616582 1.404822,-1.84844908 3.832456,-1.84844908 1.947032,0 3.216304,1.4541125 v -6.8022924 h 3.573661 V 11.043972 H 75.969722 L 75.797195,9.6268281 q -1.330878,1.6636039 -3.425796,1.6636039 -2.353692,0 -3.783154,-1.8484487 -1.417147,-1.8607714 -1.417147,-5.163334 z m 3.561346,0.2587825 q 0,1.8730949 0.653119,2.8712577 0.653119,0.9981628 1.89774,0.9981628 1.651281,0 2.329051,-1.3924983 V 1.7524352 q -0.665445,-1.39249823 -2.3044,-1.39249823 -2.57551,0 -2.57551,4.17749483 z M 99.260169,3.7117914 H 92.162128 V 11.043972 H 88.465232 V -6.8983052 h 11.682198 v 2.9944873 h -7.985302 v 4.63344554 h 7.098041 z m 6.555841,7.3321806 h -3.57367 V -2.2895066 h 3.57367 z m -3.78316,-16.7839166 q 0,-0.8009945 0.52989,-1.3185595 0.54221,-0.517566 1.46643,-0.517566 0.9119,0 1.45411,0.517566 0.54222,0.517565 0.54222,1.3185595 0,0.813318 -0.55453,1.3308841 -0.54221,0.517565 -1.4418,0.517565 -0.89958,0 -1.4541,-0.517565 -0.54222,-0.5175661 -0.54222,-1.3308841 z m 9.99395,3.450438 0.1109,1.54037478 q 1.42947,-1.78683378 3.83245,-1.78683378 2.11955,0 3.15469,1.2446218 1.03513,1.24462286 1.05978,3.721544 v 8.6137718 h -3.56135 V 2.5164614 q 0,-1.1337158 -0.49291,-1.63895835 -0.49293,-0.51756608 -1.63897,-0.51756608 -1.50341,0 -2.25511,1.28159113 v 9.4024439 h -3.56134 V -2.2895066 Z m 10.30201,6.5681559 q 0,-3.1177179 1.3925,-4.96616582 1.40483,-1.84844908 3.83245,-1.84844908 1.94703,0 3.2163,1.4541125 v -6.8022924 h 3.57368 V 11.043972 h -3.21631 l -0.17252,-1.4171439 q -1.33088,1.6636039 -3.42579,1.6636039 -2.35369,0 -3.78316,-1.8484487 -1.41715,-1.8607714 -1.41715,-5.163334 z m 3.56134,0.2587825 q 0,1.8730949 0.65312,2.8712577 0.65312,0.9981628 1.89774,0.9981628 1.65128,0 2.32905,-1.3924983 V 1.7524352 q -0.66544,-1.39249823 -2.3044,-1.39249823 -2.57551,0 -2.57551,4.17749483 z m 27.86229,2.8096424 h -6.48188 l -1.23231,3.6968978 h -3.93103 l 6.67906,-17.9422772 h 3.42579 l 6.71604,17.9422772 h -3.93104 z M 148.26872,4.352587 h 4.48556 l -2.2551,-6.7160313 z m 19.59356,-3.3025616 q -0.72706,-0.0985836 -1.2816,-0.0985836 -2.02096,0 -2.64944,1.36785237 v 8.7246788 h -3.56135 V -2.2895066 h 3.36418 l 0.0986,1.58966659 q 1.07211,-1.83612559 2.96985,-1.83612559 0.5915,0 1.10907,0.1601989 z m 7.0241,7.3691493 q 0.98584,0 1.60199,-0.542212 0.61615,-0.5422109 0.64079,-1.4417901 h 3.33954 q -0.0124,1.35553 -0.73938,2.4892447 -0.72706,1.1213927 -1.99633,1.7498657 -1.25695,0.616149 -2.78499,0.616149 -2.85894,0 -4.51022,-1.8114793 Q 168.7865,7.6551496 168.7865,4.4511706 V 4.217034 q 0,-3.0807485 1.63895,-4.91687401 1.63897,-1.83612559 4.49789,-1.83612559 2.50158,0 4.00499,1.4294666 1.51572,1.41714416 1.54037,3.7831593 h -3.33954 q -0.0247,-1.0351322 -0.64079,-1.6759277 -0.61615,-0.65311804 -1.62663,-0.65311804 -1.24462,0 -1.88543,0.91190154 -0.62847,0.8995781 -0.62847,2.932872 v 0.3696896 q 0,2.0579397 0.62847,2.9575189 0.62848,0.8995781 1.91007,0.8995781 z m 15.34213,2.6247973 q -0.24646,-0.480596 -0.35737,-1.1953297 -1.29391,1.4417897 -3.36418,1.4417897 -1.95935,0 -3.25327,-1.133715 -1.28159,-1.1337151 -1.28159,-2.8589346 0,-2.1195551 1.56503,-3.2532697 1.57733,-1.1337158 4.54718,-1.1460382 h 1.63895 V 2.1344483 q 0,-0.924224 -0.48059,-1.47875944 -0.46828,-0.55453439 -1.49108,-0.55453439 -0.89958,0 -1.41715,0.43130488 -0.50524,0.43130489 -0.50524,1.18300755 h -3.56135 q 0,-1.15836165 0.71474,-2.14420092 0.71474,-0.98583928 2.02097,-1.54037478 1.30623,-0.5668568 2.93287,-0.5668568 2.4646,0 3.90639,1.2446218 1.45412,1.23229937 1.45412,3.4750839 v 5.7794838 q 0.0123,1.8977408 0.52988,2.8712581 v 0.20949 z m -2.9452,-2.4769208 q 0.78867,0 1.45412,-0.3450437 0.66544,-0.3573672 0.98583,-0.948871 V 4.9810601 h -1.33087 q -2.6741,0 -2.84661,1.8484491 l -0.0123,0.2094907 q 0,0.6654415 0.46828,1.0967464 0.46826,0.4313049 1.28158,0.4313049 z m 8.19479,-4.2884019 q 0,-3.1177179 1.39251,-4.96616582 1.40481,-1.84844908 3.83244,-1.84844908 1.94704,0 3.21631,1.4541125 v -6.8022924 h 3.57366 V 11.043972 h -3.21629 L 204.1042,9.6268281 q -1.33088,1.6636039 -3.4258,1.6636039 -2.35369,0 -3.78315,-1.8484487 -1.41715,-1.8607714 -1.41715,-5.163334 z m 3.56135,0.2587825 q 0,1.8730949 0.65312,2.8712577 0.65312,0.9981628 1.89774,0.9981628 1.65128,0 2.32905,-1.3924983 V 1.7524352 q -0.66545,-1.39249823 -2.3044,-1.39249823 -2.57551,0 -2.57551,4.17749483 z m 17.35078,6.7530002 q -2.93287,0 -4.78132,-1.7991569 -1.83613,-1.7991572 -1.83613,-4.7936444 V 4.352587 q 0,-2.008648 0.77635,-3.58599105 0.77634,-1.58966547 2.19349,-2.43995285 1.42946,-0.8626087 3.25327,-0.8626087 2.7357,0 4.30073,1.72521849 1.57734,1.72521955 1.57734,4.89222811 v 1.4541135 h -8.49054 q 0.17252,1.3062371 1.03513,2.0949092 0.87493,0.788671 2.20581,0.788671 2.05794,0 3.2163,-1.4910819 l 1.74987,1.9593561 q -0.801,1.1337151 -2.16884,1.7745101 -1.36786,0.628473 -3.03146,0.628473 z M 215.98357,0.34761456 q -1.05978,0 -1.72522,0.71473324 -0.65312,0.7147333 -0.83797,2.0456174 h 4.95385 V 2.8245357 q -0.0247,-1.1830076 -0.6408,-1.8238031 -0.61614,-0.65311804 -1.74986,-0.65311804 z M 6.9921931,-4.4934359 3.868463,-5.2160175 1.7674473,-2.7926263 1.4895341,-5.9941705 -1.456333,-7.2392077 1.4895341,-8.4842575 1.7674473,-11.685802 3.868463,-9.2624105 6.9921931,-9.9849921 5.3358394,-7.2392077 Z M 240.95742,19.329219 l -0.72258,3.12373 2.42339,2.101016 -3.20154,0.277913 -1.24504,2.945867 -1.24505,-2.945867 -3.20154,-0.277913 2.42339,-2.101016 -0.72258,-3.12373 2.74578,1.656354 z M -3.7960787,-3.1042158 l -1.701109,7.3539182 5.70517283,4.946233 -7.53710883,0.6542663 -2.9310793,6.9351913 -2.93111,-6.9351913 -7.537109,-0.6542663 5.705173,-4.946233 -1.701109,-7.3539182 6.464155,3.89940524 z m 244.5722387,2.74020967 0.82099,-3.54922797 -2.75349,-2.3872054 3.63764,-0.3157676 1.41464,-3.3471377 1.41464,3.3471377 3.63764,0.3157676 -2.75349,2.3872054 0.821,3.54922797 -3.11979,-1.88197477 z M -1.1041053,27.80622 0.06596607,22.747912 -3.8582713,19.345701 1.3260459,18.895674 3.342168,14.125382 5.3582902,18.895674 10.542606,19.345701 6.6183644,22.747912 7.7884414,27.80622 3.342168,25.124057 Z M 245.14246,0.90734935 l 3.73984,6.20027545 -3.78905,6.2002572 7.08601,-1.62388 4.72403,5.462138 0.63972,-7.1844317 6.69234,-2.8540835 -6.64314,-2.8540964 -0.63972,-7.1844231 -4.77323,5.462137 z" />
</svg>
